PathFileType	4	(X/Y/Z)	 2.2Hzlow3min.trc
DataRate	CameraRate	NumFrames	NumMarkers	Units	OrigDataRate	OrigDataStartFrame	OrigNumFrames
200	200	11	35	m	200	751	1000
Frame#	Time	C7			LSH			RSH			MAN			RASI			LASI			HIPR			HIPL			RPSI			LPSI			COX			RTHI1			RTHI2			RTHI3			RTHI4			RSHA1			RSHA2			RSHA3			RSHA4			RHEEL			RMET5			RMET1			RTOE			LTHI1			LTHI2			LTHI3			LTHI4			LSHA1			LSHA2			LSHA3			LSHA4			LHEEL			LMET5			LMET1			LTOE			
		X1	Y1	Z1	X2	Y2	Z2	X3	Y3	Z3	X4	Y4	Z4	X5	Y5	Z5	X6	Y6	Z6	X7	Y7	Z7	X8	Y8	Z8	X9	Y9	Z9	X10	Y10	Z10	X11	Y11	Z11	X12	Y12	Z12	X13	Y13	Z13	X14	Y14	Z14	X15	Y15	Z15	X16	Y16	Z16	X17	Y17	Z17	X18	Y18	Z18	X19	Y19	Z19	X20	Y20	Z20	X21	Y21	Z21	X22	Y22	Z22	X23	Y23	Z23	X24	Y24	Z24	X25	Y25	Z25	X26	Y26	Z26	X27	Y27	Z27	X28	Y28	Z28	X29	Y29	Z29	X30	Y30	Z30	X31	Y31	Z31	X32	Y32	Z32	X33	Y33	Z33	X34	Y34	Z34	X35	Y35	Z35	
751	3.7550	-0.000000	0.000000	-0.000000	-0.213297	1.462591	-0.728395	-0.240983	1.444176	-0.392388	-0.164778	1.412512	-0.555625	-0.153745	1.013125	-0.432310	-0.134308	1.009384	-0.653265	-0.208612	1.074180	-0.412288	-0.187494	1.059671	-0.688437	-0.302165	1.057021	-0.501865	-0.297654	1.054098	-0.608817	-0.303862	1.063129	-0.552400	-0.255007	0.816119	-0.379725	-0.239072	0.758688	-0.377523	-0.176863	0.774336	-0.367268	-0.185694	0.834983	-0.369071	-0.265455	0.431633	-0.370845	-0.280369	0.391167	-0.374310	-0.221580	0.377366	-0.382557	-0.211563	0.416702	-0.382754	-0.364492	0.159480	-0.430846	-0.243842	0.056311	-0.389687	-0.216248	0.057045	-0.455027	-0.194210	0.046168	-0.449607	-0.229262	0.808868	-0.722023	-0.205585	0.752044	-0.722537	-0.144101	0.771597	-0.721375	-0.158840	0.830140	-0.720766	-0.253738	0.391724	-0.723215	-0.266707	0.353288	-0.722194	-0.205936	0.340289	-0.712086	-0.200775	0.383963	-0.715169	-0.344436	0.141553	-0.674238	-0.219880	0.049179	-0.716335	-0.190930	0.046067	-0.653837	-0.169396	0.034696	-0.654443	
752	3.7600	-0.000000	0.000000	-0.000000	-0.213454	1.462909	-0.728535	-0.240740	1.444735	-0.392369	-0.164715	1.413065	-0.555641	-0.153598	1.013660	-0.432133	-0.134256	1.009809	-0.653136	-0.208531	1.074678	-0.412168	-0.187436	1.060055	-0.688312	-0.302074	1.057418	-0.501740	-0.297570	1.054441	-0.608713	-0.304014	1.063548	-0.552269	-0.254706	0.816562	-0.379526	-0.238778	0.759111	-0.377553	-0.176504	0.774774	-0.367570	-0.185333	0.835369	-0.369151	-0.264938	0.432080	-0.370897	-0.279896	0.391619	-0.374333	-0.221188	0.377767	-0.383010	-0.211129	0.417100	-0.383190	-0.364319	0.159179	-0.431163	-0.242091	0.057963	-0.389663	-0.214461	0.058760	-0.455028	-0.192234	0.048058	-0.449655	-0.228886	0.809000	-0.721712	-0.205210	0.752175	-0.722106	-0.143729	0.771727	-0.720831	-0.158461	0.830270	-0.720341	-0.253089	0.392067	-0.722807	-0.266172	0.353680	-0.721767	-0.205505	0.340543	-0.711188	-0.200218	0.384181	-0.714356	-0.344855	0.141614	-0.673579	-0.219309	0.051061	-0.716715	-0.190045	0.047583	-0.654396	-0.168371	0.036224	-0.655163	
753	3.7650	-0.000000	0.000000	-0.000000	-0.213669	1.462962	-0.728678	-0.240498	1.444990	-0.392326	-0.164675	1.413357	-0.555647	-0.153479	1.013951	-0.431944	-0.134239	1.009985	-0.653017	-0.208482	1.074899	-0.412035	-0.187416	1.060174	-0.688190	-0.302034	1.057530	-0.501610	-0.297540	1.054490	-0.608593	-0.304215	1.063694	-0.552122	-0.254347	0.816742	-0.379293	-0.238403	0.759284	-0.377555	-0.176043	0.774956	-0.367858	-0.184920	0.835529	-0.369260	-0.264396	0.432363	-0.370975	-0.279415	0.391892	-0.374384	-0.220799	0.377977	-0.383489	-0.210678	0.417307	-0.383634	-0.364148	0.158717	-0.431511	-0.240457	0.059421	-0.389727	-0.212785	0.060280	-0.455087	-0.190377	0.049748	-0.449723	-0.228395	0.808835	-0.721470	-0.204717	0.752015	-0.721681	-0.143250	0.771566	-0.720194	-0.157978	0.830106	-0.719870	-0.252425	0.392258	-0.722363	-0.265655	0.353933	-0.721303	-0.205111	0.340598	-0.710267	-0.199659	0.384195	-0.713524	-0.345446	0.141466	-0.672933	-0.218744	0.052968	-0.717041	-0.189225	0.049128	-0.654858	-0.167398	0.037778	-0.655752	
754	3.7700	-0.000000	0.000000	-0.000000	-0.213851	1.462746	-0.728822	-0.240252	1.444948	-0.392258	-0.164626	1.413365	-0.555649	-0.153386	1.013995	-0.431744	-0.134251	1.009918	-0.652905	-0.208460	1.074852	-0.411890	-0.187433	1.060027	-0.688075	-0.302038	1.057364	-0.501475	-0.297560	1.054258	-0.608460	-0.304340	1.063560	-0.551962	-0.253926	0.816664	-0.379025	-0.237946	0.759215	-0.377543	-0.175478	0.774877	-0.368125	-0.184453	0.835467	-0.369389	-0.263840	0.432468	-0.371093	-0.278914	0.391986	-0.374427	-0.220407	0.377992	-0.383979	-0.210215	0.417307	-0.384111	-0.363983	0.158106	-0.431871	-0.238957	0.060653	-0.389882	-0.211245	0.061587	-0.455217	-0.188658	0.051222	-0.449835	-0.227796	0.808381	-0.721298	-0.204107	0.751573	-0.721269	-0.142666	0.771132	-0.719476	-0.157398	0.829665	-0.719360	-0.251775	0.392291	-0.721883	-0.265172	0.354047	-0.720799	-0.204761	0.340459	-0.709344	-0.199111	0.384028	-0.712686	-0.346181	0.141135	-0.672333	-0.218214	0.054828	-0.717267	-0.188506	0.050636	-0.655188	-0.166514	0.039296	-0.656179	
755	3.7750	-0.000000	0.000000	-0.000000	-0.213934	1.462248	-0.728964	-0.240003	1.444612	-0.392168	-0.164651	1.413119	-0.555632	-0.153319	1.013798	-0.431534	-0.134289	1.009614	-0.652801	-0.208468	1.074542	-0.411731	-0.187488	1.059620	-0.687969	-0.302079	1.056924	-0.501343	-0.297623	1.053749	-0.608317	-0.304504	1.063168	-0.551797	-0.253444	0.816336	-0.378733	-0.237410	0.758900	-0.377498	-0.174808	0.774549	-0.368354	-0.183931	0.835182	-0.369537	-0.263268	0.432377	-0.371247	-0.278406	0.391883	-0.374514	-0.220017	0.377808	-0.384478	-0.209740	0.417095	-0.384611	-0.363854	0.157348	-0.432252	-0.237598	0.061634	-0.390120	-0.209862	0.062645	-0.455430	-0.187098	0.052455	-0.450030	-0.227097	0.807652	-0.721185	-0.203384	0.750856	-0.720870	-0.141979	0.770447	-0.718693	-0.156731	0.828981	-0.718831	-0.251157	0.392168	-0.721366	-0.264736	0.354017	-0.720264	-0.204455	0.340142	-0.708444	-0.198589	0.383685	-0.711857	-0.347020	0.140645	-0.671801	-0.217752	0.056552	-0.717351	-0.187927	0.052041	-0.655350	-0.165760	0.040716	-0.656413	
756	3.7800	-0.000000	0.000000	-0.000000	-0.213936	1.461475	-0.729106	-0.239748	1.443987	-0.392055	-0.164710	1.412609	-0.555602	-0.153280	1.013360	-0.431319	-0.134348	1.009073	-0.652702	-0.208488	1.073971	-0.411567	-0.187577	1.058957	-0.687874	-0.302153	1.056220	-0.501213	-0.297723	1.052968	-0.608178	-0.304581	1.062514	-0.551631	-0.252903	0.815764	-0.378418	-0.236797	0.758351	-0.377422	-0.174034	0.773967	-0.368558	-0.183352	0.834673	-0.369706	-0.262683	0.432071	-0.371428	-0.277916	0.391563	-0.374679	-0.219625	0.377411	-0.384976	-0.209260	0.416646	-0.385124	-0.363768	0.156449	-0.432645	-0.236383	0.062332	-0.390442	-0.208638	0.063437	-0.455737	-0.185716	0.053423	-0.450334	-0.226310	0.806661	-0.721133	-0.202554	0.749887	-0.720487	-0.141204	0.769527	-0.717855	-0.155988	0.828071	-0.718286	-0.250577	0.391900	-0.720817	-0.264355	0.353829	-0.719709	-0.204204	0.339655	-0.707586	-0.198104	0.383172	-0.711056	-0.347938	0.140022	-0.671339	-0.217395	0.058049	-0.717267	-0.187518	0.053283	-0.655313	-0.165179	0.041971	-0.656419	
757	3.7850	-0.000000	0.000000	-0.000000	-0.213868	1.460431	-0.729246	-0.239482	1.443082	-0.391921	-0.164625	1.411804	-0.555585	-0.153262	1.012685	-0.431104	-0.134424	1.008310	-0.652610	-0.208529	1.073144	-0.411396	-0.187701	1.058044	-0.687787	-0.302255	1.055255	-0.501083	-0.297853	1.051931	-0.608040	-0.304688	1.061605	-0.551472	-0.252307	0.814959	-0.378083	-0.236110	0.757569	-0.377317	-0.173217	0.773166	-0.368792	-0.182721	0.833950	-0.369890	-0.262086	0.431547	-0.371607	-0.277434	0.391035	-0.374891	-0.219225	0.376780	-0.385471	-0.208782	0.415958	-0.385665	-0.363721	0.155408	-0.433035	-0.235317	0.062736	-0.390838	-0.207586	0.063950	-0.456139	-0.184519	0.054109	-0.450753	-0.225447	0.805420	-0.721136	-0.201625	0.748679	-0.720128	-0.140339	0.768410	-0.716985	-0.155187	0.826956	-0.717741	-0.250037	0.391475	-0.720245	-0.264018	0.353484	-0.719143	-0.203998	0.339001	-0.706776	-0.197646	0.382497	-0.710289	-0.348903	0.139290	-0.670941	-0.217174	0.059240	-0.717005	-0.187309	0.054285	-0.655063	-0.164813	0.042984	-0.656174	
758	3.7900	-0.000000	0.000000	-0.000000	-0.213711	1.459121	-0.729384	-0.239201	1.441903	-0.391767	-0.164434	1.410712	-0.555575	-0.153265	1.011775	-0.430891	-0.134511	1.007329	-0.652521	-0.208585	1.072073	-0.411220	-0.187855	1.056887	-0.687706	-0.302385	1.054037	-0.500950	-0.298011	1.050642	-0.607908	-0.304699	1.060437	-0.551326	-0.251658	0.813918	-0.377737	-0.235362	0.756553	-0.377192	-0.172355	0.772159	-0.369052	-0.182043	0.833012	-0.370086	-0.261492	0.430777	-0.371839	-0.276953	0.390280	-0.375161	-0.218816	0.375911	-0.385939	-0.208298	0.415022	-0.386221	-0.363715	0.154228	-0.433419	-0.234385	0.062839	-0.391306	-0.206706	0.064160	-0.456633	-0.183509	0.054489	-0.451285	-0.224522	0.803944	-0.721183	-0.200605	0.747250	-0.719788	-0.139399	0.767111	-0.716095	-0.154337	0.825661	-0.717197	-0.249526	0.390891	-0.719656	-0.263721	0.352974	-0.718571	-0.203817	0.338170	-0.706015	-0.197212	0.381648	-0.709555	-0.349897	0.138472	-0.670593	-0.217118	0.060058	-0.716566	-0.187324	0.054963	-0.654594	-0.164689	0.043670	-0.655669	
759	3.7950	-0.000000	0.000000	-0.000000	-0.213517	1.457548	-0.729519	-0.238901	1.440454	-0.391597	-0.164185	1.409353	-0.555565	-0.153285	1.010635	-0.430685	-0.134605	1.006131	-0.652437	-0.208653	1.070753	-0.411045	-0.188037	1.055494	-0.687628	-0.302544	1.052575	-0.500820	-0.298192	1.049110	-0.607779	-0.304610	1.059016	-0.551191	-0.250961	0.812653	-0.377390	-0.234557	0.755310	-0.377022	-0.171477	0.770983	-0.369355	-0.181322	0.831850	-0.370287	-0.260896	0.429760	-0.372080	-0.276510	0.389268	-0.375560	-0.218402	0.374795	-0.386386	-0.207800	0.413860	-0.386705	-0.363739	0.152888	-0.433799	-0.233589	0.062630	-0.391840	-0.205999	0.064055	-0.457212	-0.182684	0.054543	-0.451918	-0.223546	0.802246	-0.721265	-0.199504	0.745616	-0.719466	-0.138396	0.765648	-0.715191	-0.153455	0.824200	-0.716669	-0.249030	0.390130	-0.719053	-0.263446	0.352285	-0.717995	-0.203645	0.337166	-0.705303	-0.196790	0.380615	-0.708853	-0.350894	0.137586	-0.670295	-0.217247	0.060431	-0.715949	-0.187584	0.055261	-0.653915	-0.164833	0.043952	-0.654916	
760	3.8000	-0.000000	0.000000	-0.000000	-0.213319	1.455727	-0.729652	-0.238578	1.438744	-0.391411	-0.163853	1.407718	-0.555561	-0.153319	1.009263	-0.430490	-0.134703	1.004725	-0.652353	-0.208725	1.069197	-0.410877	-0.188243	1.053874	-0.687550	-0.302731	1.050873	-0.500691	-0.298394	1.047344	-0.607651	-0.304555	1.057356	-0.551080	-0.250223	0.811164	-0.377036	-0.233708	0.753846	-0.376843	-0.170578	0.769605	-0.369679	-0.180569	0.830473	-0.370491	-0.260305	0.428479	-0.372346	-0.276070	0.388004	-0.375991	-0.217972	0.373424	-0.386803	-0.207296	0.412448	-0.387152	-0.363769	0.151382	-0.434162	-0.232927	0.062093	-0.392438	-0.205452	0.063631	-0.457864	-0.182038	0.054257	-0.452637	-0.222528	0.800348	-0.721378	-0.198334	0.743798	-0.719159	-0.137345	0.764031	-0.714279	-0.152551	0.822574	-0.716137	-0.248531	0.389177	-0.718443	-0.263169	0.351402	-0.717412	-0.203469	0.335971	-0.704625	-0.196363	0.379393	-0.708175	-0.351882	0.136650	-0.670036	-0.217581	0.060310	-0.715163	-0.188094	0.055133	-0.653048	-0.165261	0.043777	-0.653945	
761	3.8050	-0.000000	0.000000	-0.000000	-0.213101	1.453659	-0.729781	-0.238227	1.436781	-0.391214	-0.163468	1.405817	-0.555560	-0.153363	1.007658	-0.430312	-0.134807	1.003105	-0.652264	-0.208814	1.067420	-0.410715	-0.188464	1.052034	-0.687469	-0.302941	1.048938	-0.500566	-0.298612	1.045352	-0.607519	-0.304527	1.055450	-0.550985	-0.249451	0.809445	-0.376676	-0.232823	0.752153	-0.376653	-0.169686	0.768037	-0.370020	-0.179793	0.828879	-0.370689	-0.259729	0.426941	-0.372651	-0.275598	0.386501	-0.376381	-0.217522	0.371793	-0.387198	-0.206775	0.410812	-0.387562	-0.363798	0.149714	-0.434514	-0.232402	0.061231	-0.393083	-0.205068	0.062871	-0.458572	-0.181562	0.053615	-0.453422	-0.221481	0.798257	-0.721502	-0.197111	0.741802	-0.718854	-0.136255	0.762274	-0.713367	-0.151638	0.820789	-0.715611	-0.248012	0.388024	-0.717831	-0.262872	0.350318	-0.716827	-0.203271	0.334575	-0.703966	-0.195914	0.377962	-0.707507	-0.352851	0.135663	-0.669816	-0.218137	0.059667	-0.714216	-0.188863	0.054545	-0.652015	-0.165975	0.043118	-0.652775	
